<mxfile host="app.diagrams.net" agent="Mozilla/5.0 (Windows NT 10.0; Win64; x64) AppleWebKit/537.36 (KHTML, like Gecko) Chrome/133.0.0.0 Safari/537.36" version="26.0.16">
  <diagram name="Page-1" id="BJEOvcACGe61t5GlMUAr">
    <mxGraphModel dx="1669" dy="999" grid="1" gridSize="10" guides="1" tooltips="1" connect="1" arrows="1" fold="1" page="1" pageScale="1" pageWidth="1700" pageHeight="1100" math="0" shadow="0">
      <root>
        <mxCell id="0" />
        <mxCell id="1" parent="0" />
        <mxCell id="BCePg-nS5X2GwOfhOmag-20" value="" style="endArrow=none;html=1;rounded=0;exitX=0.797;exitY=0.993;exitDx=0;exitDy=0;exitPerimeter=0;" edge="1" parent="1">
          <mxGeometry width="50" height="50" relative="1" as="geometry">
            <mxPoint x="167" y="620" as="sourcePoint" />
            <mxPoint x="224" y="679" as="targetPoint" />
          </mxGeometry>
        </mxCell>
        <mxCell id="rNvy_jMusGTl4G1SMH3z-1" value="" style="endArrow=none;html=1;rounded=0;" parent="1" edge="1">
          <mxGeometry width="50" height="50" relative="1" as="geometry">
            <mxPoint x="40" y="309.5" as="sourcePoint" />
            <mxPoint x="110" y="309.5" as="targetPoint" />
          </mxGeometry>
        </mxCell>
        <mxCell id="rNvy_jMusGTl4G1SMH3z-2" value="" style="rounded=1;whiteSpace=wrap;html=1;fillColor=#DEDEDE;" parent="1" vertex="1">
          <mxGeometry x="213" y="39" width="127" height="91.5" as="geometry" />
        </mxCell>
        <mxCell id="rNvy_jMusGTl4G1SMH3z-3" value="" style="endArrow=none;html=1;rounded=0;" parent="1" edge="1">
          <mxGeometry width="50" height="50" relative="1" as="geometry">
            <mxPoint x="152" y="100.5" as="sourcePoint" />
            <mxPoint x="222" y="70.5" as="targetPoint" />
          </mxGeometry>
        </mxCell>
        <mxCell id="rNvy_jMusGTl4G1SMH3z-4" value="" style="endArrow=none;html=1;rounded=0;" parent="1" edge="1">
          <mxGeometry width="50" height="50" relative="1" as="geometry">
            <mxPoint x="159" y="103.5" as="sourcePoint" />
            <mxPoint x="229" y="73.5" as="targetPoint" />
          </mxGeometry>
        </mxCell>
        <mxCell id="rNvy_jMusGTl4G1SMH3z-5" value="" style="endArrow=none;html=1;rounded=0;" parent="1" edge="1">
          <mxGeometry width="50" height="50" relative="1" as="geometry">
            <mxPoint x="168" y="123.5" as="sourcePoint" />
            <mxPoint x="238" y="93.5" as="targetPoint" />
          </mxGeometry>
        </mxCell>
        <mxCell id="rNvy_jMusGTl4G1SMH3z-6" value="" style="endArrow=none;html=1;rounded=0;" parent="1" edge="1">
          <mxGeometry width="50" height="50" relative="1" as="geometry">
            <mxPoint x="171" y="127.5" as="sourcePoint" />
            <mxPoint x="241" y="97.5" as="targetPoint" />
          </mxGeometry>
        </mxCell>
        <mxCell id="rNvy_jMusGTl4G1SMH3z-7" value="2960" style="rounded=0;whiteSpace=wrap;html=1;" parent="1" vertex="1">
          <mxGeometry x="223" y="60.5" width="80" height="20" as="geometry" />
        </mxCell>
        <mxCell id="rNvy_jMusGTl4G1SMH3z-8" value="(3)" style="text;html=1;align=center;verticalAlign=middle;whiteSpace=wrap;rounded=0;" parent="1" vertex="1">
          <mxGeometry x="302" y="61.5" width="31" height="15" as="geometry" />
        </mxCell>
        <mxCell id="rNvy_jMusGTl4G1SMH3z-9" value="2960" style="rounded=0;whiteSpace=wrap;html=1;" parent="1" vertex="1">
          <mxGeometry x="223" y="91.5" width="80" height="20" as="geometry" />
        </mxCell>
        <mxCell id="rNvy_jMusGTl4G1SMH3z-10" value="(3)" style="text;html=1;align=center;verticalAlign=middle;whiteSpace=wrap;rounded=0;" parent="1" vertex="1">
          <mxGeometry x="302" y="92.5" width="31" height="15" as="geometry" />
        </mxCell>
        <mxCell id="rNvy_jMusGTl4G1SMH3z-11" value="" style="endArrow=none;html=1;rounded=0;" parent="1" edge="1">
          <mxGeometry width="50" height="50" relative="1" as="geometry">
            <mxPoint x="40" y="140.5" as="sourcePoint" />
            <mxPoint x="110" y="140.5" as="targetPoint" />
          </mxGeometry>
        </mxCell>
        <mxCell id="rNvy_jMusGTl4G1SMH3z-12" value="C. Woods&lt;div&gt;6880&lt;/div&gt;" style="whiteSpace=wrap;html=1;aspect=fixed;" parent="1" vertex="1">
          <mxGeometry x="102" y="100.5" width="80" height="80" as="geometry" />
        </mxCell>
        <mxCell id="rNvy_jMusGTl4G1SMH3z-13" value="To-Core&amp;nbsp;&lt;div&gt;(1 Gig-LH)&lt;/div&gt;" style="text;html=1;align=center;verticalAlign=middle;whiteSpace=wrap;rounded=0;" parent="1" vertex="1">
          <mxGeometry x="36" y="107.5" width="70" height="30" as="geometry" />
        </mxCell>
        <mxCell id="rNvy_jMusGTl4G1SMH3z-14" value="" style="rounded=1;whiteSpace=wrap;html=1;fillColor=#DEDEDE;" parent="1" vertex="1">
          <mxGeometry x="213" y="201" width="127" height="91.5" as="geometry" />
        </mxCell>
        <mxCell id="rNvy_jMusGTl4G1SMH3z-15" value="" style="endArrow=none;html=1;rounded=0;" parent="1" edge="1">
          <mxGeometry width="50" height="50" relative="1" as="geometry">
            <mxPoint x="152" y="262.5" as="sourcePoint" />
            <mxPoint x="222" y="232.5" as="targetPoint" />
          </mxGeometry>
        </mxCell>
        <mxCell id="rNvy_jMusGTl4G1SMH3z-16" value="" style="endArrow=none;html=1;rounded=0;" parent="1" edge="1">
          <mxGeometry width="50" height="50" relative="1" as="geometry">
            <mxPoint x="159" y="265.5" as="sourcePoint" />
            <mxPoint x="229" y="235.5" as="targetPoint" />
          </mxGeometry>
        </mxCell>
        <mxCell id="rNvy_jMusGTl4G1SMH3z-17" value="" style="endArrow=none;html=1;rounded=0;" parent="1" edge="1">
          <mxGeometry width="50" height="50" relative="1" as="geometry">
            <mxPoint x="168" y="285.5" as="sourcePoint" />
            <mxPoint x="238" y="255.5" as="targetPoint" />
          </mxGeometry>
        </mxCell>
        <mxCell id="rNvy_jMusGTl4G1SMH3z-18" value="" style="endArrow=none;html=1;rounded=0;" parent="1" edge="1">
          <mxGeometry width="50" height="50" relative="1" as="geometry">
            <mxPoint x="171" y="289.5" as="sourcePoint" />
            <mxPoint x="241" y="259.5" as="targetPoint" />
          </mxGeometry>
        </mxCell>
        <mxCell id="rNvy_jMusGTl4G1SMH3z-19" value="2960" style="rounded=0;whiteSpace=wrap;html=1;" parent="1" vertex="1">
          <mxGeometry x="223" y="222.5" width="80" height="20" as="geometry" />
        </mxCell>
        <mxCell id="rNvy_jMusGTl4G1SMH3z-20" value="(4)" style="text;html=1;align=center;verticalAlign=middle;whiteSpace=wrap;rounded=0;" parent="1" vertex="1">
          <mxGeometry x="302" y="223.5" width="31" height="15" as="geometry" />
        </mxCell>
        <mxCell id="rNvy_jMusGTl4G1SMH3z-21" value="2960" style="rounded=0;whiteSpace=wrap;html=1;" parent="1" vertex="1">
          <mxGeometry x="223" y="253.5" width="80" height="20" as="geometry" />
        </mxCell>
        <mxCell id="rNvy_jMusGTl4G1SMH3z-22" value="(3)" style="text;html=1;align=center;verticalAlign=middle;whiteSpace=wrap;rounded=0;" parent="1" vertex="1">
          <mxGeometry x="302" y="254.5" width="31" height="15" as="geometry" />
        </mxCell>
        <mxCell id="rNvy_jMusGTl4G1SMH3z-23" value="" style="endArrow=none;html=1;rounded=0;" parent="1" edge="1">
          <mxGeometry width="50" height="50" relative="1" as="geometry">
            <mxPoint x="40" y="302.5" as="sourcePoint" />
            <mxPoint x="110" y="302.5" as="targetPoint" />
          </mxGeometry>
        </mxCell>
        <mxCell id="rNvy_jMusGTl4G1SMH3z-25" value="To-Core&amp;nbsp;&lt;div&gt;(10 Gig-LR)&lt;/div&gt;" style="text;html=1;align=center;verticalAlign=middle;whiteSpace=wrap;rounded=0;" parent="1" vertex="1">
          <mxGeometry x="10" y="269.5" width="90" height="30" as="geometry" />
        </mxCell>
        <mxCell id="rNvy_jMusGTl4G1SMH3z-26" value="2960" style="rounded=0;whiteSpace=wrap;html=1;" parent="1" vertex="1">
          <mxGeometry x="223" y="300.5" width="80" height="20" as="geometry" />
        </mxCell>
        <mxCell id="rNvy_jMusGTl4G1SMH3z-27" value="(3)" style="text;html=1;align=center;verticalAlign=middle;whiteSpace=wrap;rounded=0;" parent="1" vertex="1">
          <mxGeometry x="302" y="301.5" width="31" height="15" as="geometry" />
        </mxCell>
        <mxCell id="rNvy_jMusGTl4G1SMH3z-28" value="2960" style="rounded=0;whiteSpace=wrap;html=1;" parent="1" vertex="1">
          <mxGeometry x="223" y="331.5" width="80" height="20" as="geometry" />
        </mxCell>
        <mxCell id="rNvy_jMusGTl4G1SMH3z-29" value="(1)" style="text;html=1;align=center;verticalAlign=middle;whiteSpace=wrap;rounded=0;" parent="1" vertex="1">
          <mxGeometry x="302" y="332.5" width="31" height="15" as="geometry" />
        </mxCell>
        <mxCell id="rNvy_jMusGTl4G1SMH3z-30" value="2960" style="rounded=0;whiteSpace=wrap;html=1;" parent="1" vertex="1">
          <mxGeometry x="223" y="361.5" width="80" height="20" as="geometry" />
        </mxCell>
        <mxCell id="rNvy_jMusGTl4G1SMH3z-31" value="(1)" style="text;html=1;align=center;verticalAlign=middle;whiteSpace=wrap;rounded=0;" parent="1" vertex="1">
          <mxGeometry x="302" y="362.5" width="31" height="15" as="geometry" />
        </mxCell>
        <mxCell id="rNvy_jMusGTl4G1SMH3z-32" value="2960" style="rounded=0;whiteSpace=wrap;html=1;" parent="1" vertex="1">
          <mxGeometry x="223" y="392.5" width="80" height="20" as="geometry" />
        </mxCell>
        <mxCell id="rNvy_jMusGTl4G1SMH3z-33" value="(1)" style="text;html=1;align=center;verticalAlign=middle;whiteSpace=wrap;rounded=0;" parent="1" vertex="1">
          <mxGeometry x="302" y="393.5" width="31" height="15" as="geometry" />
        </mxCell>
        <mxCell id="rNvy_jMusGTl4G1SMH3z-34" value="2960" style="rounded=0;whiteSpace=wrap;html=1;" parent="1" vertex="1">
          <mxGeometry x="223" y="420.5" width="80" height="20" as="geometry" />
        </mxCell>
        <mxCell id="rNvy_jMusGTl4G1SMH3z-35" value="(1)" style="text;html=1;align=center;verticalAlign=middle;whiteSpace=wrap;rounded=0;" parent="1" vertex="1">
          <mxGeometry x="302" y="421.5" width="31" height="15" as="geometry" />
        </mxCell>
        <mxCell id="rNvy_jMusGTl4G1SMH3z-36" value="" style="endArrow=none;html=1;rounded=0;" parent="1" edge="1">
          <mxGeometry width="50" height="50" relative="1" as="geometry">
            <mxPoint x="39" y="588.5" as="sourcePoint" />
            <mxPoint x="109" y="588.5" as="targetPoint" />
          </mxGeometry>
        </mxCell>
        <mxCell id="rNvy_jMusGTl4G1SMH3z-37" value="" style="rounded=1;whiteSpace=wrap;html=1;fillColor=#DEDEDE;" parent="1" vertex="1">
          <mxGeometry x="212" y="480" width="127" height="91.5" as="geometry" />
        </mxCell>
        <mxCell id="rNvy_jMusGTl4G1SMH3z-38" value="" style="endArrow=none;html=1;rounded=0;" parent="1" edge="1">
          <mxGeometry width="50" height="50" relative="1" as="geometry">
            <mxPoint x="151" y="541.5" as="sourcePoint" />
            <mxPoint x="221" y="511.5" as="targetPoint" />
          </mxGeometry>
        </mxCell>
        <mxCell id="rNvy_jMusGTl4G1SMH3z-39" value="" style="endArrow=none;html=1;rounded=0;" parent="1" edge="1">
          <mxGeometry width="50" height="50" relative="1" as="geometry">
            <mxPoint x="158" y="544.5" as="sourcePoint" />
            <mxPoint x="228" y="514.5" as="targetPoint" />
          </mxGeometry>
        </mxCell>
        <mxCell id="rNvy_jMusGTl4G1SMH3z-40" value="" style="endArrow=none;html=1;rounded=0;" parent="1" edge="1">
          <mxGeometry width="50" height="50" relative="1" as="geometry">
            <mxPoint x="167" y="564.5" as="sourcePoint" />
            <mxPoint x="237" y="534.5" as="targetPoint" />
          </mxGeometry>
        </mxCell>
        <mxCell id="rNvy_jMusGTl4G1SMH3z-41" value="" style="endArrow=none;html=1;rounded=0;" parent="1" edge="1">
          <mxGeometry width="50" height="50" relative="1" as="geometry">
            <mxPoint x="170" y="568.5" as="sourcePoint" />
            <mxPoint x="240" y="538.5" as="targetPoint" />
          </mxGeometry>
        </mxCell>
        <mxCell id="rNvy_jMusGTl4G1SMH3z-42" value="2960" style="rounded=0;whiteSpace=wrap;html=1;" parent="1" vertex="1">
          <mxGeometry x="222" y="501.5" width="80" height="20" as="geometry" />
        </mxCell>
        <mxCell id="rNvy_jMusGTl4G1SMH3z-43" value="(3)" style="text;html=1;align=center;verticalAlign=middle;whiteSpace=wrap;rounded=0;" parent="1" vertex="1">
          <mxGeometry x="301" y="502.5" width="31" height="15" as="geometry" />
        </mxCell>
        <mxCell id="rNvy_jMusGTl4G1SMH3z-44" value="2960" style="rounded=0;whiteSpace=wrap;html=1;" parent="1" vertex="1">
          <mxGeometry x="222" y="532.5" width="80" height="20" as="geometry" />
        </mxCell>
        <mxCell id="rNvy_jMusGTl4G1SMH3z-45" value="(3)" style="text;html=1;align=center;verticalAlign=middle;whiteSpace=wrap;rounded=0;" parent="1" vertex="1">
          <mxGeometry x="301" y="533.5" width="31" height="15" as="geometry" />
        </mxCell>
        <mxCell id="rNvy_jMusGTl4G1SMH3z-46" value="" style="endArrow=none;html=1;rounded=0;" parent="1" edge="1">
          <mxGeometry width="50" height="50" relative="1" as="geometry">
            <mxPoint x="39" y="581.5" as="sourcePoint" />
            <mxPoint x="109" y="581.5" as="targetPoint" />
          </mxGeometry>
        </mxCell>
        <mxCell id="rNvy_jMusGTl4G1SMH3z-48" value="To-Core&lt;div&gt;(10 Gig-LRM)&lt;/div&gt;" style="text;html=1;align=center;verticalAlign=middle;whiteSpace=wrap;rounded=0;" parent="1" vertex="1">
          <mxGeometry x="20" y="548.5" width="79" height="30" as="geometry" />
        </mxCell>
        <mxCell id="rNvy_jMusGTl4G1SMH3z-49" value="2960" style="rounded=0;whiteSpace=wrap;html=1;" parent="1" vertex="1">
          <mxGeometry x="222" y="579.5" width="80" height="20" as="geometry" />
        </mxCell>
        <mxCell id="rNvy_jMusGTl4G1SMH3z-50" value="(1)" style="text;html=1;align=center;verticalAlign=middle;whiteSpace=wrap;rounded=0;" parent="1" vertex="1">
          <mxGeometry x="301" y="580.5" width="31" height="15" as="geometry" />
        </mxCell>
        <mxCell id="rNvy_jMusGTl4G1SMH3z-51" value="2960" style="rounded=0;whiteSpace=wrap;html=1;" parent="1" vertex="1">
          <mxGeometry x="222" y="610.5" width="80" height="20" as="geometry" />
        </mxCell>
        <mxCell id="rNvy_jMusGTl4G1SMH3z-52" value="(5)" style="text;html=1;align=center;verticalAlign=middle;whiteSpace=wrap;rounded=0;" parent="1" vertex="1">
          <mxGeometry x="301" y="611.5" width="31" height="15" as="geometry" />
        </mxCell>
        <mxCell id="rNvy_jMusGTl4G1SMH3z-53" value="2960" style="rounded=0;whiteSpace=wrap;html=1;" parent="1" vertex="1">
          <mxGeometry x="222" y="640.5" width="80" height="20" as="geometry" />
        </mxCell>
        <mxCell id="rNvy_jMusGTl4G1SMH3z-54" value="(3)" style="text;html=1;align=center;verticalAlign=middle;whiteSpace=wrap;rounded=0;" parent="1" vertex="1">
          <mxGeometry x="301" y="641.5" width="31" height="15" as="geometry" />
        </mxCell>
        <mxCell id="rNvy_jMusGTl4G1SMH3z-55" value="2960" style="rounded=0;whiteSpace=wrap;html=1;" parent="1" vertex="1">
          <mxGeometry x="222" y="671.5" width="80" height="20" as="geometry" />
        </mxCell>
        <mxCell id="rNvy_jMusGTl4G1SMH3z-56" value="(2)" style="text;html=1;align=center;verticalAlign=middle;whiteSpace=wrap;rounded=0;" parent="1" vertex="1">
          <mxGeometry x="301" y="672.5" width="31" height="15" as="geometry" />
        </mxCell>
        <mxCell id="rNvy_jMusGTl4G1SMH3z-59" value="" style="endArrow=none;html=1;rounded=0;" parent="1" edge="1">
          <mxGeometry width="50" height="50" relative="1" as="geometry">
            <mxPoint x="39" y="829.5" as="sourcePoint" />
            <mxPoint x="109" y="829.5" as="targetPoint" />
          </mxGeometry>
        </mxCell>
        <mxCell id="rNvy_jMusGTl4G1SMH3z-60" value="" style="rounded=1;whiteSpace=wrap;html=1;fillColor=#DEDEDE;" parent="1" vertex="1">
          <mxGeometry x="212" y="721" width="127" height="91.5" as="geometry" />
        </mxCell>
        <mxCell id="rNvy_jMusGTl4G1SMH3z-61" value="" style="endArrow=none;html=1;rounded=0;" parent="1" edge="1">
          <mxGeometry width="50" height="50" relative="1" as="geometry">
            <mxPoint x="151" y="782.5" as="sourcePoint" />
            <mxPoint x="221" y="752.5" as="targetPoint" />
          </mxGeometry>
        </mxCell>
        <mxCell id="rNvy_jMusGTl4G1SMH3z-62" value="" style="endArrow=none;html=1;rounded=0;" parent="1" edge="1">
          <mxGeometry width="50" height="50" relative="1" as="geometry">
            <mxPoint x="158" y="785.5" as="sourcePoint" />
            <mxPoint x="228" y="755.5" as="targetPoint" />
          </mxGeometry>
        </mxCell>
        <mxCell id="rNvy_jMusGTl4G1SMH3z-63" value="" style="endArrow=none;html=1;rounded=0;" parent="1" edge="1">
          <mxGeometry width="50" height="50" relative="1" as="geometry">
            <mxPoint x="167" y="805.5" as="sourcePoint" />
            <mxPoint x="237" y="775.5" as="targetPoint" />
          </mxGeometry>
        </mxCell>
        <mxCell id="rNvy_jMusGTl4G1SMH3z-64" value="" style="endArrow=none;html=1;rounded=0;" parent="1" edge="1">
          <mxGeometry width="50" height="50" relative="1" as="geometry">
            <mxPoint x="170" y="809.5" as="sourcePoint" />
            <mxPoint x="240" y="779.5" as="targetPoint" />
          </mxGeometry>
        </mxCell>
        <mxCell id="rNvy_jMusGTl4G1SMH3z-65" value="2960" style="rounded=0;whiteSpace=wrap;html=1;" parent="1" vertex="1">
          <mxGeometry x="222" y="742.5" width="80" height="20" as="geometry" />
        </mxCell>
        <mxCell id="rNvy_jMusGTl4G1SMH3z-66" value="(2)" style="text;html=1;align=center;verticalAlign=middle;whiteSpace=wrap;rounded=0;" parent="1" vertex="1">
          <mxGeometry x="301" y="743.5" width="31" height="15" as="geometry" />
        </mxCell>
        <mxCell id="rNvy_jMusGTl4G1SMH3z-67" value="2960" style="rounded=0;whiteSpace=wrap;html=1;" parent="1" vertex="1">
          <mxGeometry x="222" y="773.5" width="80" height="20" as="geometry" />
        </mxCell>
        <mxCell id="rNvy_jMusGTl4G1SMH3z-68" value="(2)" style="text;html=1;align=center;verticalAlign=middle;whiteSpace=wrap;rounded=0;" parent="1" vertex="1">
          <mxGeometry x="301" y="774.5" width="31" height="15" as="geometry" />
        </mxCell>
        <mxCell id="rNvy_jMusGTl4G1SMH3z-69" value="" style="endArrow=none;html=1;rounded=0;" parent="1" edge="1">
          <mxGeometry width="50" height="50" relative="1" as="geometry">
            <mxPoint x="39" y="822.5" as="sourcePoint" />
            <mxPoint x="109" y="822.5" as="targetPoint" />
          </mxGeometry>
        </mxCell>
        <mxCell id="rNvy_jMusGTl4G1SMH3z-71" value="To-Core&lt;div&gt;(10 Gig-LR)&lt;/div&gt;&lt;div&gt;(10 Gig-LRM)&lt;/div&gt;" style="text;html=1;align=center;verticalAlign=middle;whiteSpace=wrap;rounded=0;" parent="1" vertex="1">
          <mxGeometry x="24" y="782.5" width="79" height="30" as="geometry" />
        </mxCell>
        <mxCell id="rNvy_jMusGTl4G1SMH3z-72" value="2960" style="rounded=0;whiteSpace=wrap;html=1;" parent="1" vertex="1">
          <mxGeometry x="222" y="820.5" width="80" height="20" as="geometry" />
        </mxCell>
        <mxCell id="rNvy_jMusGTl4G1SMH3z-73" value="(4)" style="text;html=1;align=center;verticalAlign=middle;whiteSpace=wrap;rounded=0;" parent="1" vertex="1">
          <mxGeometry x="301" y="821.5" width="31" height="15" as="geometry" />
        </mxCell>
        <mxCell id="rNvy_jMusGTl4G1SMH3z-74" value="2960" style="rounded=0;whiteSpace=wrap;html=1;" parent="1" vertex="1">
          <mxGeometry x="222" y="851.5" width="80" height="20" as="geometry" />
        </mxCell>
        <mxCell id="rNvy_jMusGTl4G1SMH3z-75" value="(3)" style="text;html=1;align=center;verticalAlign=middle;whiteSpace=wrap;rounded=0;" parent="1" vertex="1">
          <mxGeometry x="301" y="852.5" width="31" height="15" as="geometry" />
        </mxCell>
        <mxCell id="rNvy_jMusGTl4G1SMH3z-76" value="2960" style="rounded=0;whiteSpace=wrap;html=1;" parent="1" vertex="1">
          <mxGeometry x="222" y="881.5" width="80" height="20" as="geometry" />
        </mxCell>
        <mxCell id="rNvy_jMusGTl4G1SMH3z-77" value="(3)" style="text;html=1;align=center;verticalAlign=middle;whiteSpace=wrap;rounded=0;" parent="1" vertex="1">
          <mxGeometry x="301" y="882.5" width="31" height="15" as="geometry" />
        </mxCell>
        <mxCell id="rNvy_jMusGTl4G1SMH3z-78" value="2960" style="rounded=0;whiteSpace=wrap;html=1;" parent="1" vertex="1">
          <mxGeometry x="222" y="912.5" width="80" height="20" as="geometry" />
        </mxCell>
        <mxCell id="rNvy_jMusGTl4G1SMH3z-79" value="(2)" style="text;html=1;align=center;verticalAlign=middle;whiteSpace=wrap;rounded=0;" parent="1" vertex="1">
          <mxGeometry x="301" y="913.5" width="31" height="15" as="geometry" />
        </mxCell>
        <mxCell id="rNvy_jMusGTl4G1SMH3z-80" value="2960" style="rounded=0;whiteSpace=wrap;html=1;" parent="1" vertex="1">
          <mxGeometry x="222" y="943.5" width="80" height="20" as="geometry" />
        </mxCell>
        <mxCell id="rNvy_jMusGTl4G1SMH3z-81" value="(1)" style="text;html=1;align=center;verticalAlign=middle;whiteSpace=wrap;rounded=0;" parent="1" vertex="1">
          <mxGeometry x="301" y="944.5" width="31" height="15" as="geometry" />
        </mxCell>
        <mxCell id="rNvy_jMusGTl4G1SMH3z-82" value="" style="endArrow=none;html=1;rounded=0;" parent="1" edge="1">
          <mxGeometry width="50" height="50" relative="1" as="geometry">
            <mxPoint x="706" y="147.5" as="sourcePoint" />
            <mxPoint x="776" y="147.5" as="targetPoint" />
          </mxGeometry>
        </mxCell>
        <mxCell id="rNvy_jMusGTl4G1SMH3z-84" value="" style="endArrow=none;html=1;rounded=0;" parent="1" edge="1">
          <mxGeometry width="50" height="50" relative="1" as="geometry">
            <mxPoint x="818" y="100.5" as="sourcePoint" />
            <mxPoint x="888" y="70.5" as="targetPoint" />
          </mxGeometry>
        </mxCell>
        <mxCell id="rNvy_jMusGTl4G1SMH3z-85" value="" style="endArrow=none;html=1;rounded=0;" parent="1" edge="1">
          <mxGeometry width="50" height="50" relative="1" as="geometry">
            <mxPoint x="825" y="103.5" as="sourcePoint" />
            <mxPoint x="895" y="73.5" as="targetPoint" />
          </mxGeometry>
        </mxCell>
        <mxCell id="rNvy_jMusGTl4G1SMH3z-86" value="" style="endArrow=none;html=1;rounded=0;" parent="1" edge="1">
          <mxGeometry width="50" height="50" relative="1" as="geometry">
            <mxPoint x="834" y="123.5" as="sourcePoint" />
            <mxPoint x="904" y="93.5" as="targetPoint" />
          </mxGeometry>
        </mxCell>
        <mxCell id="rNvy_jMusGTl4G1SMH3z-87" value="" style="endArrow=none;html=1;rounded=0;" parent="1" edge="1">
          <mxGeometry width="50" height="50" relative="1" as="geometry">
            <mxPoint x="837" y="127.5" as="sourcePoint" />
            <mxPoint x="907" y="97.5" as="targetPoint" />
          </mxGeometry>
        </mxCell>
        <mxCell id="rNvy_jMusGTl4G1SMH3z-88" value="2960" style="rounded=0;whiteSpace=wrap;html=1;" parent="1" vertex="1">
          <mxGeometry x="889" y="60.5" width="80" height="20" as="geometry" />
        </mxCell>
        <mxCell id="rNvy_jMusGTl4G1SMH3z-89" value="(4)" style="text;html=1;align=center;verticalAlign=middle;whiteSpace=wrap;rounded=0;" parent="1" vertex="1">
          <mxGeometry x="968" y="61.5" width="31" height="15" as="geometry" />
        </mxCell>
        <mxCell id="rNvy_jMusGTl4G1SMH3z-90" value="2960" style="rounded=0;whiteSpace=wrap;html=1;" parent="1" vertex="1">
          <mxGeometry x="889" y="91.5" width="80" height="20" as="geometry" />
        </mxCell>
        <mxCell id="rNvy_jMusGTl4G1SMH3z-91" value="(4)" style="text;html=1;align=center;verticalAlign=middle;whiteSpace=wrap;rounded=0;" parent="1" vertex="1">
          <mxGeometry x="968" y="92.5" width="31" height="15" as="geometry" />
        </mxCell>
        <mxCell id="rNvy_jMusGTl4G1SMH3z-92" value="" style="endArrow=none;html=1;rounded=0;" parent="1" edge="1">
          <mxGeometry width="50" height="50" relative="1" as="geometry">
            <mxPoint x="706" y="140.5" as="sourcePoint" />
            <mxPoint x="776" y="140.5" as="targetPoint" />
          </mxGeometry>
        </mxCell>
        <mxCell id="rNvy_jMusGTl4G1SMH3z-94" value="To-Core&amp;nbsp;&lt;div&gt;(10 Gig-LR)&lt;/div&gt;" style="text;html=1;align=center;verticalAlign=middle;whiteSpace=wrap;rounded=0;" parent="1" vertex="1">
          <mxGeometry x="690" y="107.5" width="76" height="30" as="geometry" />
        </mxCell>
        <mxCell id="rNvy_jMusGTl4G1SMH3z-95" value="2960" style="rounded=0;whiteSpace=wrap;html=1;" parent="1" vertex="1">
          <mxGeometry x="889" y="119.5" width="80" height="20" as="geometry" />
        </mxCell>
        <mxCell id="rNvy_jMusGTl4G1SMH3z-96" value="(4)" style="text;html=1;align=center;verticalAlign=middle;whiteSpace=wrap;rounded=0;" parent="1" vertex="1">
          <mxGeometry x="968" y="120.5" width="31" height="15" as="geometry" />
        </mxCell>
        <mxCell id="rNvy_jMusGTl4G1SMH3z-97" value="2960" style="rounded=0;whiteSpace=wrap;html=1;" parent="1" vertex="1">
          <mxGeometry x="889" y="150.5" width="80" height="20" as="geometry" />
        </mxCell>
        <mxCell id="rNvy_jMusGTl4G1SMH3z-98" value="(4)" style="text;html=1;align=center;verticalAlign=middle;whiteSpace=wrap;rounded=0;" parent="1" vertex="1">
          <mxGeometry x="968" y="151.5" width="31" height="15" as="geometry" />
        </mxCell>
        <mxCell id="rNvy_jMusGTl4G1SMH3z-99" value="2960" style="rounded=0;whiteSpace=wrap;html=1;" parent="1" vertex="1">
          <mxGeometry x="889" y="180.5" width="80" height="20" as="geometry" />
        </mxCell>
        <mxCell id="rNvy_jMusGTl4G1SMH3z-100" value="(2)" style="text;html=1;align=center;verticalAlign=middle;whiteSpace=wrap;rounded=0;" parent="1" vertex="1">
          <mxGeometry x="968" y="181.5" width="31" height="15" as="geometry" />
        </mxCell>
        <mxCell id="rNvy_jMusGTl4G1SMH3z-101" value="2960" style="rounded=0;whiteSpace=wrap;html=1;" parent="1" vertex="1">
          <mxGeometry x="889" y="211.5" width="80" height="20" as="geometry" />
        </mxCell>
        <mxCell id="rNvy_jMusGTl4G1SMH3z-102" value="(2)" style="text;html=1;align=center;verticalAlign=middle;whiteSpace=wrap;rounded=0;" parent="1" vertex="1">
          <mxGeometry x="968" y="212.5" width="31" height="15" as="geometry" />
        </mxCell>
        <mxCell id="rNvy_jMusGTl4G1SMH3z-103" value="2960" style="rounded=0;whiteSpace=wrap;html=1;" parent="1" vertex="1">
          <mxGeometry x="889" y="239.5" width="80" height="20" as="geometry" />
        </mxCell>
        <mxCell id="rNvy_jMusGTl4G1SMH3z-104" value="(2)" style="text;html=1;align=center;verticalAlign=middle;whiteSpace=wrap;rounded=0;" parent="1" vertex="1">
          <mxGeometry x="968" y="240.5" width="31" height="15" as="geometry" />
        </mxCell>
        <mxCell id="rNvy_jMusGTl4G1SMH3z-105" value="" style="endArrow=none;html=1;rounded=0;" parent="1" edge="1">
          <mxGeometry width="50" height="50" relative="1" as="geometry">
            <mxPoint x="705" y="407.5" as="sourcePoint" />
            <mxPoint x="775" y="407.5" as="targetPoint" />
          </mxGeometry>
        </mxCell>
        <mxCell id="rNvy_jMusGTl4G1SMH3z-107" value="" style="endArrow=none;html=1;rounded=0;" parent="1" edge="1">
          <mxGeometry width="50" height="50" relative="1" as="geometry">
            <mxPoint x="817" y="360.5" as="sourcePoint" />
            <mxPoint x="887" y="330.5" as="targetPoint" />
          </mxGeometry>
        </mxCell>
        <mxCell id="rNvy_jMusGTl4G1SMH3z-108" value="" style="endArrow=none;html=1;rounded=0;" parent="1" edge="1">
          <mxGeometry width="50" height="50" relative="1" as="geometry">
            <mxPoint x="824" y="363.5" as="sourcePoint" />
            <mxPoint x="894" y="333.5" as="targetPoint" />
          </mxGeometry>
        </mxCell>
        <mxCell id="rNvy_jMusGTl4G1SMH3z-111" value="2960" style="rounded=0;whiteSpace=wrap;html=1;" parent="1" vertex="1">
          <mxGeometry x="888" y="320.5" width="80" height="20" as="geometry" />
        </mxCell>
        <mxCell id="rNvy_jMusGTl4G1SMH3z-112" value="(1)" style="text;html=1;align=center;verticalAlign=middle;whiteSpace=wrap;rounded=0;" parent="1" vertex="1">
          <mxGeometry x="967" y="321.5" width="31" height="15" as="geometry" />
        </mxCell>
        <mxCell id="rNvy_jMusGTl4G1SMH3z-114" value="(x39)" style="text;html=1;align=center;verticalAlign=middle;whiteSpace=wrap;rounded=0;" parent="1" vertex="1">
          <mxGeometry x="916" y="342.5" width="31" height="15" as="geometry" />
        </mxCell>
        <mxCell id="rNvy_jMusGTl4G1SMH3z-115" value="" style="endArrow=none;html=1;rounded=0;" parent="1" edge="1">
          <mxGeometry width="50" height="50" relative="1" as="geometry">
            <mxPoint x="705" y="400.5" as="sourcePoint" />
            <mxPoint x="775" y="400.5" as="targetPoint" />
          </mxGeometry>
        </mxCell>
        <mxCell id="rNvy_jMusGTl4G1SMH3z-116" value="LOB-2&lt;br&gt;&lt;div&gt;6880&lt;/div&gt;" style="whiteSpace=wrap;html=1;aspect=fixed;" parent="1" vertex="1">
          <mxGeometry x="767" y="360.5" width="80" height="80" as="geometry" />
        </mxCell>
        <mxCell id="rNvy_jMusGTl4G1SMH3z-117" value="To-Core&amp;nbsp;&lt;div&gt;(10Gbase-CU5m)&lt;/div&gt;" style="text;html=1;align=center;verticalAlign=middle;whiteSpace=wrap;rounded=0;" parent="1" vertex="1">
          <mxGeometry x="659" y="367.5" width="120" height="30" as="geometry" />
        </mxCell>
        <mxCell id="rNvy_jMusGTl4G1SMH3z-126" value="" style="endArrow=none;html=1;rounded=0;" parent="1" edge="1">
          <mxGeometry width="50" height="50" relative="1" as="geometry">
            <mxPoint x="705" y="566.5" as="sourcePoint" />
            <mxPoint x="775" y="566.5" as="targetPoint" />
          </mxGeometry>
        </mxCell>
        <mxCell id="rNvy_jMusGTl4G1SMH3z-128" value="" style="endArrow=none;html=1;rounded=0;" parent="1" edge="1">
          <mxGeometry width="50" height="50" relative="1" as="geometry">
            <mxPoint x="817" y="519.5" as="sourcePoint" />
            <mxPoint x="887" y="489.5" as="targetPoint" />
          </mxGeometry>
        </mxCell>
        <mxCell id="rNvy_jMusGTl4G1SMH3z-129" value="" style="endArrow=none;html=1;rounded=0;" parent="1" edge="1">
          <mxGeometry width="50" height="50" relative="1" as="geometry">
            <mxPoint x="824" y="522.5" as="sourcePoint" />
            <mxPoint x="894" y="492.5" as="targetPoint" />
          </mxGeometry>
        </mxCell>
        <mxCell id="rNvy_jMusGTl4G1SMH3z-132" value="2960" style="rounded=0;whiteSpace=wrap;html=1;" parent="1" vertex="1">
          <mxGeometry x="888" y="479.5" width="80" height="20" as="geometry" />
        </mxCell>
        <mxCell id="rNvy_jMusGTl4G1SMH3z-133" value="(1)" style="text;html=1;align=center;verticalAlign=middle;whiteSpace=wrap;rounded=0;" parent="1" vertex="1">
          <mxGeometry x="967" y="480.5" width="31" height="15" as="geometry" />
        </mxCell>
        <mxCell id="rNvy_jMusGTl4G1SMH3z-135" value="(x37)" style="text;html=1;align=center;verticalAlign=middle;whiteSpace=wrap;rounded=0;" parent="1" vertex="1">
          <mxGeometry x="919" y="503.5" width="31" height="15" as="geometry" />
        </mxCell>
        <mxCell id="rNvy_jMusGTl4G1SMH3z-136" value="" style="endArrow=none;html=1;rounded=0;" parent="1" edge="1">
          <mxGeometry width="50" height="50" relative="1" as="geometry">
            <mxPoint x="705" y="559.5" as="sourcePoint" />
            <mxPoint x="775" y="559.5" as="targetPoint" />
          </mxGeometry>
        </mxCell>
        <mxCell id="rNvy_jMusGTl4G1SMH3z-137" value="LOB-1&lt;br&gt;&lt;div&gt;6880&lt;/div&gt;" style="whiteSpace=wrap;html=1;aspect=fixed;" parent="1" vertex="1">
          <mxGeometry x="767" y="519.5" width="80" height="80" as="geometry" />
        </mxCell>
        <mxCell id="rNvy_jMusGTl4G1SMH3z-150" value="&lt;font style=&quot;font-size: 24px;&quot;&gt;2960:&lt;/font&gt;&lt;div&gt;&lt;ul&gt;&lt;li&gt;&lt;font style=&quot;font-size: 24px;&quot;&gt;UPOE Support&lt;/font&gt;&lt;/li&gt;&lt;li&gt;&lt;font style=&quot;font-size: 24px;&quot;&gt;Port-Security (ISE) Support&lt;/font&gt;&lt;/li&gt;&lt;li&gt;&lt;font style=&quot;font-size: 24px;&quot;&gt;1 Gig uplinks&lt;/font&gt;&lt;/li&gt;&lt;/ul&gt;&lt;div&gt;&lt;span style=&quot;font-size: 24px;&quot;&gt;6800:&lt;/span&gt;&lt;/div&gt;&lt;ul&gt;&lt;li&gt;&lt;font style=&quot;font-size: 24px;&quot;&gt;10 Gig uplinks&lt;/font&gt;&lt;/li&gt;&lt;li&gt;&lt;font style=&quot;font-size: 24px;&quot;&gt;EIGRP&lt;/font&gt;&lt;/li&gt;&lt;li&gt;&lt;font style=&quot;font-size: 24px;&quot;&gt;Netflow&lt;/font&gt;&lt;/li&gt;&lt;li&gt;&lt;font style=&quot;font-size: 24px;&quot;&gt;Single Supervisor Engine&lt;/font&gt;&lt;/li&gt;&lt;li&gt;&lt;font style=&quot;font-size: 24px;&quot;&gt;Redundant Power&lt;/font&gt;&lt;/li&gt;&lt;/ul&gt;&lt;div&gt;&lt;span style=&quot;font-size: 24px;&quot;&gt;Core-6880&lt;/span&gt;&lt;/div&gt;&lt;ul&gt;&lt;li&gt;&lt;font style=&quot;font-size: 24px;&quot;&gt;VSS Support&lt;/font&gt;&lt;/li&gt;&lt;li&gt;&lt;font style=&quot;font-size: 24px;&quot;&gt;Redundant Supervisor&lt;/font&gt;&lt;/li&gt;&lt;/ul&gt;&lt;/div&gt;" style="text;html=1;align=left;verticalAlign=middle;whiteSpace=wrap;rounded=0;" parent="1" vertex="1">
          <mxGeometry x="700" y="688" width="400" height="310" as="geometry" />
        </mxCell>
        <mxCell id="rNvy_jMusGTl4G1SMH3z-151" value="Core&lt;br&gt;&lt;div&gt;6880&lt;/div&gt;&lt;div&gt;(VSS)&lt;/div&gt;" style="whiteSpace=wrap;html=1;aspect=fixed;" parent="1" vertex="1">
          <mxGeometry x="1220" y="397.5" width="80" height="80" as="geometry" />
        </mxCell>
        <mxCell id="rNvy_jMusGTl4G1SMH3z-153" value="" style="endArrow=none;html=1;rounded=0;entryX=0.125;entryY=0.425;entryDx=0;entryDy=0;entryPerimeter=0;" parent="1" target="rNvy_jMusGTl4G1SMH3z-152" edge="1">
          <mxGeometry width="50" height="50" relative="1" as="geometry">
            <mxPoint x="1300" y="431.5" as="sourcePoint" />
            <mxPoint x="1350" y="381.5" as="targetPoint" />
          </mxGeometry>
        </mxCell>
        <mxCell id="rNvy_jMusGTl4G1SMH3z-154" value="" style="endArrow=none;html=1;rounded=0;entryX=0.125;entryY=0.425;entryDx=0;entryDy=0;entryPerimeter=0;" parent="1" edge="1">
          <mxGeometry width="50" height="50" relative="1" as="geometry">
            <mxPoint x="1298" y="441.5" as="sourcePoint" />
            <mxPoint x="1338" y="442" as="targetPoint" />
          </mxGeometry>
        </mxCell>
        <mxCell id="rNvy_jMusGTl4G1SMH3z-152" value="Core&lt;br&gt;&lt;div&gt;6880&lt;/div&gt;&lt;div&gt;(VSS)&lt;/div&gt;" style="whiteSpace=wrap;html=1;aspect=fixed;" parent="1" vertex="1">
          <mxGeometry x="1330" y="397.5" width="80" height="80" as="geometry" />
        </mxCell>
        <mxCell id="rNvy_jMusGTl4G1SMH3z-155" value="" style="endArrow=none;html=1;rounded=0;entryX=0;entryY=0.5;entryDx=0;entryDy=0;" parent="1" source="rNvy_jMusGTl4G1SMH3z-24" target="rNvy_jMusGTl4G1SMH3z-26" edge="1">
          <mxGeometry width="50" height="50" relative="1" as="geometry">
            <mxPoint x="177" y="359" as="sourcePoint" />
            <mxPoint x="227" y="309" as="targetPoint" />
          </mxGeometry>
        </mxCell>
        <mxCell id="rNvy_jMusGTl4G1SMH3z-157" value="" style="endArrow=none;html=1;rounded=0;entryX=0;entryY=0.5;entryDx=0;entryDy=0;exitX=1;exitY=0.75;exitDx=0;exitDy=0;" parent="1" source="rNvy_jMusGTl4G1SMH3z-24" edge="1">
          <mxGeometry width="50" height="50" relative="1" as="geometry">
            <mxPoint x="181" y="335.5" as="sourcePoint" />
            <mxPoint x="222" y="340.5" as="targetPoint" />
          </mxGeometry>
        </mxCell>
        <mxCell id="rNvy_jMusGTl4G1SMH3z-158" value="" style="endArrow=none;html=1;rounded=0;entryX=0;entryY=0.5;entryDx=0;entryDy=0;exitX=1;exitY=1;exitDx=0;exitDy=0;" parent="1" source="rNvy_jMusGTl4G1SMH3z-24" edge="1">
          <mxGeometry width="50" height="50" relative="1" as="geometry">
            <mxPoint x="182" y="367.5" as="sourcePoint" />
            <mxPoint x="223" y="372.5" as="targetPoint" />
          </mxGeometry>
        </mxCell>
        <mxCell id="rNvy_jMusGTl4G1SMH3z-159" value="" style="endArrow=none;html=1;rounded=0;entryX=0;entryY=0.5;entryDx=0;entryDy=0;exitX=0.883;exitY=0.994;exitDx=0;exitDy=0;exitPerimeter=0;" parent="1" source="rNvy_jMusGTl4G1SMH3z-24" edge="1">
          <mxGeometry width="50" height="50" relative="1" as="geometry">
            <mxPoint x="182" y="397.5" as="sourcePoint" />
            <mxPoint x="223" y="402.5" as="targetPoint" />
          </mxGeometry>
        </mxCell>
        <mxCell id="rNvy_jMusGTl4G1SMH3z-160" value="" style="endArrow=none;html=1;rounded=0;entryX=0;entryY=0.5;entryDx=0;entryDy=0;exitX=0.513;exitY=0.969;exitDx=0;exitDy=0;exitPerimeter=0;" parent="1" source="rNvy_jMusGTl4G1SMH3z-24" edge="1">
          <mxGeometry width="50" height="50" relative="1" as="geometry">
            <mxPoint x="173" y="370.75" as="sourcePoint" />
            <mxPoint x="223" y="431.25" as="targetPoint" />
          </mxGeometry>
        </mxCell>
        <mxCell id="rNvy_jMusGTl4G1SMH3z-24" value="Cap West&lt;div&gt;6880&lt;/div&gt;" style="whiteSpace=wrap;html=1;aspect=fixed;" parent="1" vertex="1">
          <mxGeometry x="102" y="262.5" width="80" height="80" as="geometry" />
        </mxCell>
        <mxCell id="rNvy_jMusGTl4G1SMH3z-161" value="" style="endArrow=none;html=1;rounded=0;exitX=1;exitY=0.5;exitDx=0;exitDy=0;" parent="1" source="rNvy_jMusGTl4G1SMH3z-47" edge="1">
          <mxGeometry width="50" height="50" relative="1" as="geometry">
            <mxPoint x="173" y="640.5" as="sourcePoint" />
            <mxPoint x="223" y="590.5" as="targetPoint" />
          </mxGeometry>
        </mxCell>
        <mxCell id="rNvy_jMusGTl4G1SMH3z-162" value="" style="endArrow=none;html=1;rounded=0;exitX=1;exitY=0.5;exitDx=0;exitDy=0;" parent="1" edge="1">
          <mxGeometry width="50" height="50" relative="1" as="geometry">
            <mxPoint x="180" y="610.5" as="sourcePoint" />
            <mxPoint x="222" y="619" as="targetPoint" />
          </mxGeometry>
        </mxCell>
        <mxCell id="rNvy_jMusGTl4G1SMH3z-163" value="" style="endArrow=none;html=1;rounded=0;exitX=0.971;exitY=0.985;exitDx=0;exitDy=0;exitPerimeter=0;" parent="1" source="rNvy_jMusGTl4G1SMH3z-47" edge="1">
          <mxGeometry width="50" height="50" relative="1" as="geometry">
            <mxPoint x="180" y="641.5" as="sourcePoint" />
            <mxPoint x="222" y="650" as="targetPoint" />
          </mxGeometry>
        </mxCell>
        <mxCell id="rNvy_jMusGTl4G1SMH3z-164" value="" style="endArrow=none;html=1;rounded=0;exitX=0.797;exitY=0.993;exitDx=0;exitDy=0;exitPerimeter=0;" parent="1" source="rNvy_jMusGTl4G1SMH3z-47" edge="1">
          <mxGeometry width="50" height="50" relative="1" as="geometry">
            <mxPoint x="179" y="650" as="sourcePoint" />
            <mxPoint x="222" y="680" as="targetPoint" />
          </mxGeometry>
        </mxCell>
        <mxCell id="rNvy_jMusGTl4G1SMH3z-165" value="" style="endArrow=none;html=1;rounded=0;exitX=1;exitY=0.5;exitDx=0;exitDy=0;" parent="1" source="rNvy_jMusGTl4G1SMH3z-70" edge="1">
          <mxGeometry width="50" height="50" relative="1" as="geometry">
            <mxPoint x="173" y="881.5" as="sourcePoint" />
            <mxPoint x="223" y="831.5" as="targetPoint" />
          </mxGeometry>
        </mxCell>
        <mxCell id="rNvy_jMusGTl4G1SMH3z-166" value="" style="endArrow=none;html=1;rounded=0;exitX=1;exitY=0.5;exitDx=0;exitDy=0;" parent="1" edge="1">
          <mxGeometry width="50" height="50" relative="1" as="geometry">
            <mxPoint x="182" y="851.5" as="sourcePoint" />
            <mxPoint x="224" y="860" as="targetPoint" />
          </mxGeometry>
        </mxCell>
        <mxCell id="rNvy_jMusGTl4G1SMH3z-167" value="" style="endArrow=none;html=1;rounded=0;exitX=0.75;exitY=1;exitDx=0;exitDy=0;" parent="1" source="rNvy_jMusGTl4G1SMH3z-70" edge="1">
          <mxGeometry width="50" height="50" relative="1" as="geometry">
            <mxPoint x="180" y="881.5" as="sourcePoint" />
            <mxPoint x="222" y="890" as="targetPoint" />
          </mxGeometry>
        </mxCell>
        <mxCell id="rNvy_jMusGTl4G1SMH3z-168" value="" style="endArrow=none;html=1;rounded=0;exitX=0.5;exitY=1;exitDx=0;exitDy=0;" parent="1" source="rNvy_jMusGTl4G1SMH3z-70" edge="1">
          <mxGeometry width="50" height="50" relative="1" as="geometry">
            <mxPoint x="178" y="897.5" as="sourcePoint" />
            <mxPoint x="222" y="925.5" as="targetPoint" />
          </mxGeometry>
        </mxCell>
        <mxCell id="rNvy_jMusGTl4G1SMH3z-169" value="" style="endArrow=none;html=1;rounded=0;exitX=0.25;exitY=1;exitDx=0;exitDy=0;" parent="1" source="rNvy_jMusGTl4G1SMH3z-70" edge="1">
          <mxGeometry width="50" height="50" relative="1" as="geometry">
            <mxPoint x="170" y="893" as="sourcePoint" />
            <mxPoint x="222" y="955.5" as="targetPoint" />
          </mxGeometry>
        </mxCell>
        <mxCell id="rNvy_jMusGTl4G1SMH3z-170" value="" style="endArrow=none;html=1;rounded=0;" parent="1" source="rNvy_jMusGTl4G1SMH3z-93" edge="1">
          <mxGeometry width="50" height="50" relative="1" as="geometry">
            <mxPoint x="850" y="140" as="sourcePoint" />
            <mxPoint x="889" y="130.5" as="targetPoint" />
          </mxGeometry>
        </mxCell>
        <mxCell id="rNvy_jMusGTl4G1SMH3z-171" value="" style="endArrow=none;html=1;rounded=0;exitX=0.967;exitY=0.769;exitDx=0;exitDy=0;exitPerimeter=0;" parent="1" source="rNvy_jMusGTl4G1SMH3z-93" edge="1">
          <mxGeometry width="50" height="50" relative="1" as="geometry">
            <mxPoint x="850" y="166.5" as="sourcePoint" />
            <mxPoint x="889" y="157" as="targetPoint" />
          </mxGeometry>
        </mxCell>
        <mxCell id="rNvy_jMusGTl4G1SMH3z-172" value="" style="endArrow=none;html=1;rounded=0;exitX=0.975;exitY=0.948;exitDx=0;exitDy=0;exitPerimeter=0;" parent="1" source="rNvy_jMusGTl4G1SMH3z-93" edge="1">
          <mxGeometry width="50" height="50" relative="1" as="geometry">
            <mxPoint x="850" y="200.5" as="sourcePoint" />
            <mxPoint x="889" y="191" as="targetPoint" />
          </mxGeometry>
        </mxCell>
        <mxCell id="rNvy_jMusGTl4G1SMH3z-173" value="" style="endArrow=none;html=1;rounded=0;exitX=0.879;exitY=0.994;exitDx=0;exitDy=0;exitPerimeter=0;" parent="1" source="rNvy_jMusGTl4G1SMH3z-93" edge="1">
          <mxGeometry width="50" height="50" relative="1" as="geometry">
            <mxPoint x="846" y="207.5" as="sourcePoint" />
            <mxPoint x="889" y="222.5" as="targetPoint" />
          </mxGeometry>
        </mxCell>
        <mxCell id="rNvy_jMusGTl4G1SMH3z-174" value="" style="endArrow=none;html=1;rounded=0;exitX=0.75;exitY=1;exitDx=0;exitDy=0;" parent="1" source="rNvy_jMusGTl4G1SMH3z-93" edge="1">
          <mxGeometry width="50" height="50" relative="1" as="geometry">
            <mxPoint x="838" y="208" as="sourcePoint" />
            <mxPoint x="889" y="250.5" as="targetPoint" />
          </mxGeometry>
        </mxCell>
        <mxCell id="BCePg-nS5X2GwOfhOmag-2" value="" style="endArrow=none;html=1;rounded=0;" edge="1" parent="1">
          <mxGeometry width="50" height="50" relative="1" as="geometry">
            <mxPoint x="848" y="141" as="sourcePoint" />
            <mxPoint x="889" y="135.5" as="targetPoint" />
          </mxGeometry>
        </mxCell>
        <mxCell id="BCePg-nS5X2GwOfhOmag-3" value="" style="endArrow=none;html=1;rounded=0;exitX=0.967;exitY=0.769;exitDx=0;exitDy=0;exitPerimeter=0;" edge="1" parent="1">
          <mxGeometry width="50" height="50" relative="1" as="geometry">
            <mxPoint x="846" y="166" as="sourcePoint" />
            <mxPoint x="890" y="161" as="targetPoint" />
          </mxGeometry>
        </mxCell>
        <mxCell id="BCePg-nS5X2GwOfhOmag-4" value="" style="endArrow=none;html=1;rounded=0;exitX=0.975;exitY=0.948;exitDx=0;exitDy=0;exitPerimeter=0;" edge="1" parent="1">
          <mxGeometry width="50" height="50" relative="1" as="geometry">
            <mxPoint x="847" y="179" as="sourcePoint" />
            <mxPoint x="890" y="194" as="targetPoint" />
          </mxGeometry>
        </mxCell>
        <mxCell id="BCePg-nS5X2GwOfhOmag-5" value="" style="endArrow=none;html=1;rounded=0;exitX=0.879;exitY=0.994;exitDx=0;exitDy=0;exitPerimeter=0;entryX=0;entryY=0.75;entryDx=0;entryDy=0;" edge="1" parent="1" target="rNvy_jMusGTl4G1SMH3z-101">
          <mxGeometry width="50" height="50" relative="1" as="geometry">
            <mxPoint x="836" y="182" as="sourcePoint" />
            <mxPoint x="887" y="224.5" as="targetPoint" />
          </mxGeometry>
        </mxCell>
        <mxCell id="BCePg-nS5X2GwOfhOmag-6" value="" style="endArrow=none;html=1;rounded=0;exitX=0.75;exitY=1;exitDx=0;exitDy=0;entryX=0;entryY=0.75;entryDx=0;entryDy=0;" edge="1" parent="1" target="rNvy_jMusGTl4G1SMH3z-103">
          <mxGeometry width="50" height="50" relative="1" as="geometry">
            <mxPoint x="823" y="180" as="sourcePoint" />
            <mxPoint x="884" y="249.5" as="targetPoint" />
          </mxGeometry>
        </mxCell>
        <mxCell id="rNvy_jMusGTl4G1SMH3z-93" value="A.E.S.&lt;br&gt;&lt;div&gt;6880&lt;/div&gt;" style="whiteSpace=wrap;html=1;aspect=fixed;" parent="1" vertex="1">
          <mxGeometry x="768" y="100.5" width="80" height="80" as="geometry" />
        </mxCell>
        <mxCell id="BCePg-nS5X2GwOfhOmag-8" value="2960" style="rounded=0;whiteSpace=wrap;html=1;" vertex="1" parent="1">
          <mxGeometry x="889" y="263.5" width="80" height="20" as="geometry" />
        </mxCell>
        <mxCell id="BCePg-nS5X2GwOfhOmag-9" value="(1)" style="text;html=1;align=center;verticalAlign=middle;whiteSpace=wrap;rounded=0;" vertex="1" parent="1">
          <mxGeometry x="968" y="266.5" width="31" height="15" as="geometry" />
        </mxCell>
        <mxCell id="BCePg-nS5X2GwOfhOmag-10" value="" style="endArrow=none;html=1;rounded=0;exitX=0.5;exitY=1;exitDx=0;exitDy=0;entryX=0;entryY=0.75;entryDx=0;entryDy=0;" edge="1" parent="1" source="rNvy_jMusGTl4G1SMH3z-93">
          <mxGeometry width="50" height="50" relative="1" as="geometry">
            <mxPoint x="823" y="196" as="sourcePoint" />
            <mxPoint x="889" y="271" as="targetPoint" />
          </mxGeometry>
        </mxCell>
        <mxCell id="BCePg-nS5X2GwOfhOmag-11" value="To-Core&amp;nbsp;&lt;div&gt;(10Gbase-CU5m)&lt;/div&gt;" style="text;html=1;align=center;verticalAlign=middle;whiteSpace=wrap;rounded=0;" vertex="1" parent="1">
          <mxGeometry x="659" y="526" width="120" height="30" as="geometry" />
        </mxCell>
        <mxCell id="BCePg-nS5X2GwOfhOmag-13" value="Rtr" style="rounded=0;whiteSpace=wrap;html=1;" vertex="1" parent="1">
          <mxGeometry x="258" y="146.5" width="80" height="20" as="geometry" />
        </mxCell>
        <mxCell id="BCePg-nS5X2GwOfhOmag-14" value="" style="endArrow=none;html=1;rounded=0;entryX=0;entryY=0.5;entryDx=0;entryDy=0;" edge="1" parent="1" target="BCePg-nS5X2GwOfhOmag-13">
          <mxGeometry width="50" height="50" relative="1" as="geometry">
            <mxPoint x="182" y="160" as="sourcePoint" />
            <mxPoint x="232" y="110" as="targetPoint" />
          </mxGeometry>
        </mxCell>
        <mxCell id="BCePg-nS5X2GwOfhOmag-15" value="1-Gig-Tx" style="text;html=1;align=center;verticalAlign=middle;whiteSpace=wrap;rounded=0;" vertex="1" parent="1">
          <mxGeometry x="180" y="139.5" width="60" height="22.5" as="geometry" />
        </mxCell>
        <mxCell id="BCePg-nS5X2GwOfhOmag-16" value="" style="endArrow=none;html=1;rounded=0;entryX=0;entryY=0.5;entryDx=0;entryDy=0;" edge="1" parent="1">
          <mxGeometry width="50" height="50" relative="1" as="geometry">
            <mxPoint x="182" y="310" as="sourcePoint" />
            <mxPoint x="223" y="315" as="targetPoint" />
          </mxGeometry>
        </mxCell>
        <mxCell id="BCePg-nS5X2GwOfhOmag-17" value="" style="endArrow=none;html=1;rounded=0;exitX=1;exitY=0.5;exitDx=0;exitDy=0;" edge="1" parent="1">
          <mxGeometry width="50" height="50" relative="1" as="geometry">
            <mxPoint x="180" y="613.5" as="sourcePoint" />
            <mxPoint x="222" y="622" as="targetPoint" />
          </mxGeometry>
        </mxCell>
        <mxCell id="BCePg-nS5X2GwOfhOmag-18" value="" style="endArrow=none;html=1;rounded=0;exitX=1;exitY=0.5;exitDx=0;exitDy=0;" edge="1" parent="1">
          <mxGeometry width="50" height="50" relative="1" as="geometry">
            <mxPoint x="181" y="607.5" as="sourcePoint" />
            <mxPoint x="223" y="616" as="targetPoint" />
          </mxGeometry>
        </mxCell>
        <mxCell id="BCePg-nS5X2GwOfhOmag-19" value="" style="endArrow=none;html=1;rounded=0;exitX=0.887;exitY=0.967;exitDx=0;exitDy=0;exitPerimeter=0;" edge="1" parent="1" source="rNvy_jMusGTl4G1SMH3z-47">
          <mxGeometry width="50" height="50" relative="1" as="geometry">
            <mxPoint x="179" y="623" as="sourcePoint" />
            <mxPoint x="222" y="653" as="targetPoint" />
          </mxGeometry>
        </mxCell>
        <mxCell id="rNvy_jMusGTl4G1SMH3z-47" value="Cap East&lt;div&gt;6880&lt;/div&gt;" style="whiteSpace=wrap;html=1;aspect=fixed;" parent="1" vertex="1">
          <mxGeometry x="101" y="541.5" width="80" height="80" as="geometry" />
        </mxCell>
        <mxCell id="BCePg-nS5X2GwOfhOmag-21" value="" style="endArrow=none;html=1;rounded=0;exitX=1;exitY=0.5;exitDx=0;exitDy=0;" edge="1" parent="1">
          <mxGeometry width="50" height="50" relative="1" as="geometry">
            <mxPoint x="180" y="828" as="sourcePoint" />
            <mxPoint x="222" y="836.5" as="targetPoint" />
          </mxGeometry>
        </mxCell>
        <mxCell id="BCePg-nS5X2GwOfhOmag-22" value="" style="endArrow=none;html=1;rounded=0;exitX=1;exitY=0.5;exitDx=0;exitDy=0;" edge="1" parent="1">
          <mxGeometry width="50" height="50" relative="1" as="geometry">
            <mxPoint x="181" y="854.5" as="sourcePoint" />
            <mxPoint x="223" y="863" as="targetPoint" />
          </mxGeometry>
        </mxCell>
        <mxCell id="BCePg-nS5X2GwOfhOmag-23" value="" style="endArrow=none;html=1;rounded=0;exitX=0.75;exitY=1;exitDx=0;exitDy=0;entryX=-0.001;entryY=0.647;entryDx=0;entryDy=0;entryPerimeter=0;" edge="1" parent="1" target="rNvy_jMusGTl4G1SMH3z-76">
          <mxGeometry width="50" height="50" relative="1" as="geometry">
            <mxPoint x="156" y="863" as="sourcePoint" />
            <mxPoint x="217" y="890" as="targetPoint" />
          </mxGeometry>
        </mxCell>
        <mxCell id="BCePg-nS5X2GwOfhOmag-24" value="" style="endArrow=none;html=1;rounded=0;exitX=0.5;exitY=1;exitDx=0;exitDy=0;entryX=0;entryY=0.75;entryDx=0;entryDy=0;" edge="1" parent="1" target="rNvy_jMusGTl4G1SMH3z-78">
          <mxGeometry width="50" height="50" relative="1" as="geometry">
            <mxPoint x="137" y="863" as="sourcePoint" />
            <mxPoint x="218" y="925.5" as="targetPoint" />
          </mxGeometry>
        </mxCell>
        <mxCell id="BCePg-nS5X2GwOfhOmag-25" value="2960" style="rounded=0;whiteSpace=wrap;html=1;" vertex="1" parent="1">
          <mxGeometry x="222" y="969.5" width="80" height="20" as="geometry" />
        </mxCell>
        <mxCell id="BCePg-nS5X2GwOfhOmag-26" value="(1)" style="text;html=1;align=center;verticalAlign=middle;whiteSpace=wrap;rounded=0;" vertex="1" parent="1">
          <mxGeometry x="301" y="970.5" width="31" height="15" as="geometry" />
        </mxCell>
        <mxCell id="BCePg-nS5X2GwOfhOmag-27" value="" style="endArrow=none;html=1;rounded=0;exitX=0.104;exitY=0.978;exitDx=0;exitDy=0;exitPerimeter=0;" edge="1" parent="1" source="rNvy_jMusGTl4G1SMH3z-70">
          <mxGeometry width="50" height="50" relative="1" as="geometry">
            <mxPoint x="121" y="889" as="sourcePoint" />
            <mxPoint x="222" y="981.5" as="targetPoint" />
          </mxGeometry>
        </mxCell>
        <mxCell id="rNvy_jMusGTl4G1SMH3z-70" value="Agency-4&lt;br&gt;&lt;div&gt;6880&lt;/div&gt;" style="whiteSpace=wrap;html=1;aspect=fixed;" parent="1" vertex="1">
          <mxGeometry x="101" y="782.5" width="80" height="80" as="geometry" />
        </mxCell>
        <mxCell id="BCePg-nS5X2GwOfhOmag-28" value="&lt;div&gt;&lt;span style=&quot;font-size: 24px;&quot;&gt;Core-6880 Connections:&lt;/span&gt;&lt;/div&gt;&lt;ul&gt;&lt;li&gt;&lt;span style=&quot;font-size: 24px;&quot;&gt;(6) 1 Gig - Sx&lt;/span&gt;&lt;/li&gt;&lt;li&gt;&lt;span style=&quot;font-size: 24px;&quot;&gt;(3) 1 Gig - Tx&lt;/span&gt;&lt;/li&gt;&lt;li&gt;&lt;span style=&quot;font-size: 24px;&quot;&gt;(1) 1 Gig - LH&lt;/span&gt;&lt;/li&gt;&lt;li&gt;&lt;span style=&quot;font-size: 24px;&quot;&gt;(5) 10 Gig - LR&lt;/span&gt;&lt;/li&gt;&lt;li&gt;&lt;span style=&quot;font-size: 24px;&quot;&gt;(3) 10 Gig-LRM&lt;/span&gt;&lt;/li&gt;&lt;li&gt;&lt;span style=&quot;font-size: 24px;&quot;&gt;(8) 10 Gig-CU5M&lt;/span&gt;&lt;/li&gt;&lt;li&gt;&lt;span style=&quot;font-size: 24px;&quot;&gt;(2) 10Gig-ACU10M&lt;/span&gt;&lt;/li&gt;&lt;/ul&gt;" style="text;html=1;align=left;verticalAlign=middle;whiteSpace=wrap;rounded=0;" vertex="1" parent="1">
          <mxGeometry x="1210" y="595.5" width="400" height="310" as="geometry" />
        </mxCell>
      </root>
    </mxGraphModel>
  </diagram>
</mxfile>
